<svg width="49" height="49" viewBox="0 0 49 49" fill="none" xmlns="http://www.w3.org/2000/svg">
<path d="M10.0309 5.42722C14.2666 4.8773 18.5852 4.59375 22.9693 4.59375C27.353 4.59375 31.6712 4.87724 35.9065 5.42706C39.8311 5.93654 42.6266 9.22705 42.8593 13.0359C42.1941 12.8138 41.4891 12.6664 40.7517 12.6052C37.9167 12.3699 35.0499 12.25 32.1562 12.25C29.2625 12.25 26.3957 12.3699 23.5608 12.6052C18.746 13.0048 15.3125 17.0779 15.3125 21.6584V30.408C15.3125 33.8597 17.2616 37.0208 20.2795 38.5423L14.864 43.9578C14.4261 44.3957 13.7675 44.5267 13.1953 44.2897C12.6231 44.0527 12.25 43.4943 12.25 42.875V34.6482C11.5078 34.5687 10.7681 34.481 10.0309 34.3853C5.93035 33.853 3.0625 30.2847 3.0625 26.2612V13.5513C3.0625 9.52788 5.93034 5.95959 10.0309 5.42722Z" fill="black" fill-opacity="0.8"/>
<path d="M32.1562 15.3125C29.3471 15.3125 26.5649 15.4289 23.8141 15.6572C20.6714 15.9181 18.375 18.5849 18.375 21.6584V30.408C18.375 33.4861 20.6779 36.1545 23.8246 36.4114C26.3642 36.6186 28.9305 36.732 31.52 36.748L37.1985 42.4265C37.6364 42.8644 38.295 42.9954 38.8672 42.7584C39.4394 42.5214 39.8125 41.9631 39.8125 41.3437V36.4644C40.0378 36.4475 40.2629 36.4299 40.4877 36.4115C43.6345 36.1548 45.9375 33.4864 45.9375 30.4081V21.6584C45.9375 18.5849 43.6411 15.9181 40.4984 15.6572C37.7476 15.4289 34.9653 15.3125 32.1562 15.3125Z" fill="black" fill-opacity="0.8"/>
</svg>
