<svg width="49" height="49" viewBox="0 0 49 49" fill="none" xmlns="http://www.w3.org/2000/svg">
<path fill-rule="evenodd" clip-rule="evenodd" d="M24.5 4.59375C13.5061 4.59375 4.59375 13.5061 4.59375 24.5C4.59375 35.4939 13.5061 44.4062 24.5 44.4062C35.4939 44.4062 44.4062 35.4939 44.4062 24.5C44.4062 13.5061 35.4939 4.59375 24.5 4.59375ZM26.0312 12.25C26.0312 11.4043 25.3457 10.7188 24.5 10.7188C23.6543 10.7188 22.9688 11.4043 22.9688 12.25V24.5C22.9688 25.3457 23.6543 26.0312 24.5 26.0312H33.6875C34.5332 26.0312 35.2188 25.3457 35.2188 24.5C35.2188 23.6543 34.5332 22.9688 33.6875 22.9688H26.0312V12.25Z" fill="black" fill-opacity="0.8"/>
</svg>
