<svg width="102" height="83" viewBox="0 0 102 83" fill="none" xmlns="http://www.w3.org/2000/svg">
<path fill-rule="evenodd" clip-rule="evenodd" d="M85.1645 47.0894C85.6632 46.7802 86.9398 45.9225 88.007 45.1845C90.3807 43.5388 90.4405 43.5089 89.5828 44.5462C88.1765 46.2317 85.2343 49.0243 82.4716 51.2783C78.3226 54.6693 76.8964 55.7964 72.7773 58.9081L72.6854 58.9778C70.1699 60.884 67.9577 62.5605 67.7606 62.728C67.6838 62.7865 67.5291 62.9055 67.3266 63.0612C66.9771 63.3299 66.4852 63.7082 66.0053 64.0744C60.3901 68.3232 57.0889 71.5147 54.8049 74.8958C53.3388 77.08 52.5908 78.6159 51.7131 81.2589C51.4737 81.9571 51.2643 82.5256 51.2344 82.5256C51.0349 82.5256 51.5835 79.8626 52.1719 77.9377C52.7105 76.1624 53.7178 73.8685 54.775 72.0034C56.3209 69.2806 58.9938 65.8497 61.3875 63.5259C63.851 61.1322 65.5066 59.9254 73.3658 54.789C74.2634 54.2006 76.4077 52.7943 78.1331 51.6573C82.2822 48.9246 83.2596 48.2862 85.1645 47.0894ZM19.3089 8.39188C21.1341 7.78349 22.6301 7.54413 25.4726 7.38455C25.8316 7.3646 26.7991 7.3646 27.6169 7.39452C30.0106 7.46434 31.3769 7.68376 33.631 8.38191C39.8046 10.2968 43.7741 13.3986 46.1578 18.176C46.8161 19.4925 47.4145 21.6667 47.4145 22.7239C47.4145 22.9832 47.3546 22.9035 47.0355 22.2153C45.6192 19.1933 43.3453 16.4306 40.0839 13.7876C36.8624 11.1845 34.1297 9.97768 29.7114 9.19975C28.6043 9.01025 28.0557 8.98032 25.9713 8.97035C23.8269 8.97035 23.3881 9.00027 22.3808 9.19975C17.5336 10.1572 13.983 12.4611 11.6791 16.1414C10.5122 17.9965 9.89384 19.8715 9.69437 22.1355L9.68403 22.2521C9.59917 23.2087 9.56392 23.606 9.74524 23.8189C9.87405 23.9701 10.1122 24.0282 10.5194 24.1275L10.6119 24.1502C13.8733 24.948 15.6685 27.1921 16.1074 31.012C16.1573 31.5007 16.1971 33.1862 16.1971 34.7521C16.1872 36.3179 16.1872 37.7541 16.1872 37.9436C16.1971 38.1531 16.2869 38.4224 16.4265 38.5819C18.4811 41.215 20.4858 43.4391 23.5676 46.5209C26.5198 49.4731 27.5471 50.4206 31.357 53.7019C39.5553 60.7732 42.6172 63.9946 45.9284 69.0413C47.8234 71.9336 49.5289 75.7734 50.4066 79.1844C50.7656 80.6007 51.0249 82.1565 50.8653 82.0169C50.8254 81.977 50.6459 81.3686 50.4564 80.6705C49.7084 77.818 48.6811 75.2349 47.4943 73.2701C44.3526 68.024 40.1836 63.3563 35.7454 60.1349C35.0073 59.5963 34.1795 58.9879 33.9003 58.7784C33.4814 58.4693 29.3224 55.5071 27.6668 54.3502C25.3529 52.7245 23.9167 51.6074 21.922 49.902C20.1866 48.4059 17.6832 45.9125 16.1174 44.0973C15.3195 43.1698 14.5415 42.322 14.382 42.2023C14.2324 42.0926 14.1027 41.9231 14.1027 41.8233C14.1027 41.6139 12.9258 39.8386 12.7463 39.7688C12.6765 39.7389 12.487 39.8386 12.3374 39.9882C11.4996 40.7761 9.58466 41.7934 8.2482 42.1425C7.12118 42.4517 5.45559 42.4517 4.37845 42.1425C1.70553 41.3945 -0.00993033 39.2202 4.32566e-05 36.5972C0.0100168 34.393 1.07719 32.6975 3.13175 31.6204C3.75011 31.2912 5.46557 30.7227 5.64509 30.7826C5.68499 30.8025 5.38578 31.012 4.96689 31.2613C2.80262 32.5379 1.65566 34.9815 2.17428 37.1856C2.61312 39.0307 3.73016 40.3473 5.38578 40.9556C5.87449 41.1352 6.18367 41.1651 7.27079 41.1751C8.42772 41.1751 8.65712 41.1451 9.41511 40.8958C10.3526 40.5866 11.0508 40.2575 11.6791 39.8286C12.4471 39.3 12.4471 39.2901 12.0781 38.7615C11.5195 37.9636 10.4623 36.1484 9.94371 35.1012C8.48757 32.1789 7.54007 28.8776 7.3406 26.095L7.27079 25.1276L6.42303 25.1475C4.79734 25.1774 2.83254 25.9254 1.50605 27.0126C1.12706 27.3218 0.768009 27.5711 0.708168 27.5711C0.508696 27.5611 2.11444 26.095 2.87244 25.5863C4.10916 24.7486 4.75744 24.4693 6.21359 24.1402L7.16108 23.9307L7.33063 22.7838C7.60989 20.819 8.06867 19.4027 8.98624 17.5476C9.97363 15.5529 11.1306 13.9871 12.7662 12.4112C14.7709 10.4764 16.8355 9.20972 19.3089 8.39188ZM12.8859 27.9601C12.3972 27.1422 11.719 26.484 10.8014 25.9454C9.75421 25.337 9.73426 25.3869 10.3028 27.0924C10.971 29.0771 12.2676 31.6004 13.4444 33.1862L13.9531 33.8744L13.983 32.7374C14.0429 30.8225 13.6938 29.3165 12.8859 27.9601ZM76.4377 7.29479C76.2482 7.31474 75.4803 7.41447 74.7422 7.52419C69.9549 8.24228 66.0054 9.57874 62.5844 11.6632C59.4926 13.5283 55.8223 16.3608 53.5882 18.5849C51.9127 20.2605 51.2046 21.1082 50.0277 22.8735C49.2497 24.0404 47.7238 26.9128 47.8335 27.0225C47.8534 27.0525 48.382 26.5338 49.0004 25.8756C51.2644 23.462 53.8575 21.3177 56.6202 19.5723C63.3025 15.3534 69.7554 12.8601 75.8393 12.1719C77.4052 11.9923 80.7962 11.9624 82.0329 12.122C87.7278 12.8401 91.6175 15.3335 94.0212 19.7917C94.7193 21.0982 94.9288 21.7066 95.3377 23.7412C95.3875 23.9607 95.3676 23.9607 93.8117 23.9607C92.4453 23.9607 92.1162 23.9906 91.2585 24.22C89.563 24.6588 88.2963 25.3769 87.2391 26.4939C84.3667 29.5459 83.888 35.0413 86.2118 38.4722C86.3714 38.7216 86.511 38.9609 86.511 39.0208C86.511 39.1604 84.5163 41.0554 83.0901 42.2622C81.2251 43.848 78.4923 45.9524 74.3931 48.9644C71.8499 50.8295 68.4788 53.3827 67.0127 54.5596C60.111 60.085 55.6228 65.1516 52.9998 70.3578C52.561 71.2255 52.0024 72.4522 52.0523 72.4522C52.0723 72.4522 52.3116 72.0334 52.5809 71.5147C52.8602 70.9961 53.4785 69.9588 53.9672 69.1909C56.2612 65.6104 58.3357 63.3264 62.2254 60.1448C66.7334 56.4646 68.9176 54.8987 74.1438 51.6573C81.4943 47.0894 85.5436 44.5062 87.3588 43.2296C88.1268 42.6911 88.9845 42.1026 89.2737 41.9331L89.8023 41.6139L90.4805 41.8234C91.3283 42.0926 92.7545 42.332 93.4826 42.332C94.8889 42.332 97.0432 41.8134 98.3298 41.1551C99.3371 40.6564 101.312 39.1504 101.172 39.0108C101.142 38.9809 100.763 39.2202 100.324 39.5494C99.367 40.2475 98.1702 40.8559 97.2825 41.0753C96.2652 41.3346 94.7891 41.3845 93.7319 41.195C92.6847 41.0155 91.3981 40.5667 91.3981 40.3971C91.3981 40.3273 91.7771 39.9483 92.2459 39.5494C94.3403 37.7541 96.5943 35.1111 97.9906 32.8471L98.599 31.8597H100.295H102L101.93 30.9222C101.761 28.3989 100.773 26.4939 99.0079 25.2273L98.2998 24.7286L98.24 24.0305C98.1303 22.9334 97.7214 21.1282 97.2925 19.8815C95.966 15.9519 93.4028 12.5608 90.0916 10.3567C87.0696 8.34202 82.751 7.19505 78.3826 7.24492C77.5049 7.24492 76.6272 7.27484 76.4377 7.29479ZM95.1681 24.6389C95.4474 24.7186 95.4574 25.0578 95.1881 26.3743C94.849 28.0598 94.2805 29.486 93.4527 30.7427L93.0437 31.371L89.9918 31.3511C88.3063 31.3411 86.8701 31.3012 86.8003 31.2513C86.7005 31.1915 86.7205 30.9621 86.9399 30.1044C87.8575 26.3743 90.3409 24.3895 93.8915 24.5291C94.47 24.5491 95.0385 24.599 95.1681 24.6389ZM99.6163 30.0246C99.7261 30.8424 99.6862 31.3311 99.5166 31.401C99.2872 31.4907 98.8982 31.4708 98.8284 31.371C98.7686 31.2613 99.367 29.5658 99.4767 29.5658C99.5166 29.5658 99.5764 29.7753 99.6163 30.0246ZM92.5949 31.9595C92.5949 32.0891 91.8768 33.1264 90.9792 34.3033C90.2013 35.3206 88.2963 37.5347 88.1866 37.5347C88.057 37.5447 87.3887 36.2481 87.1893 35.6198C86.9499 34.8418 86.7105 33.2959 86.7105 32.4781V31.8597H89.6527C91.5577 31.8597 92.5949 31.8996 92.5949 31.9595ZM29.9707 0.0440063C29.9707 0.123795 29.8012 0.602524 29.6117 1.11118C29.2327 2.07861 28.7041 2.96626 28.0358 3.75418L27.6269 4.23291L25.5325 4.17307C19.7578 3.99355 15.6586 5.31006 12.5369 8.35201C10.0634 10.7556 8.39784 13.5981 7.63985 16.6999C7.4304 17.5377 7.2409 18.8941 7.35061 18.7943C7.37056 18.7644 7.59995 18.156 7.84929 17.4479C8.44771 15.7325 8.54744 15.513 9.17578 14.4459C10.8813 11.5336 13.5143 9.0701 16.5562 7.54414C17.9126 6.85596 18.0922 6.79613 19.8675 6.28747C21.8622 5.709 23.4181 5.50953 25.6721 5.49956C29.6914 5.49956 33.4914 6.39718 37.042 8.17248C39.7149 9.50894 41.8493 11.1745 44.4125 13.8873C45.0508 14.5556 45.5794 15.0642 45.5993 15.0144C45.6991 14.7251 43.8539 12.4113 42.4477 11.0349C39.1265 7.80346 35.0173 5.73892 29.8809 4.72162C28.9434 4.53212 28.1655 4.35259 28.1655 4.3127C28.1655 4.2728 28.365 3.95365 28.6143 3.60458C29.3125 2.59724 30.1203 0.612495 30.0305 0.123795C30.0106 -0.005867 29.9807 -0.0357819 29.9707 0.0440063ZM57.9367 23.9806C55.4832 24.4992 53.5882 25.6262 52.3515 27.2918C52.2019 27.5013 52.1021 27.6708 52.142 27.6708C52.1719 27.6708 52.541 27.3916 52.9499 27.0425C54.7252 25.5564 56.3409 24.9281 58.3356 24.948C60.4002 24.968 61.986 25.5863 63.2825 26.8729C64.8384 28.4188 65.2673 30.0645 65.2673 34.5526C65.2673 36.6969 65.2573 36.8166 65.0279 37.2953C64.3397 38.7714 62.7739 40.1677 61.1083 40.7961C60.1309 41.1651 58.6448 41.3646 57.827 41.2349C56.1115 40.9556 54.8349 40.0082 54.1068 38.4323C53.3987 36.9263 53.4186 35.1909 54.1567 33.6949C54.5157 32.9768 55.7525 31.7101 56.4706 31.3411C57.1089 31.002 57.1388 30.8624 56.5504 30.9721C54.3262 31.381 52.3814 32.9768 51.7929 34.8518C50.7856 38.0932 52.6208 41.3446 55.942 42.1924C56.8994 42.4317 58.4852 42.4118 59.5025 42.1425C60.4201 41.9031 61.5471 41.3945 62.345 40.8659C63.1529 40.3373 64.3996 39.1305 64.8683 38.4124L65.2673 37.8239V39.9782V42.1325H66.3145H67.3617L67.3916 38.6119C67.4315 31.76 67.3817 30.643 66.893 28.9674C66.514 27.6609 66.0452 26.843 65.1177 25.9155C63.9308 24.7286 62.6941 24.1402 60.849 23.8908C59.7618 23.7412 58.9839 23.7612 57.9367 23.9806ZM25.0138 25.1874C25.8117 24.7087 27.0185 24.21 27.8164 24.0404C28.7639 23.841 30.3297 23.841 31.0877 24.0404C32.4242 24.3895 33.4714 25.1475 34.369 26.4341L34.8777 27.1622L35.6057 26.5239C36.9422 25.3569 38.0393 24.7186 39.5353 24.22C40.2933 23.9706 40.5227 23.9407 41.7794 23.9407C42.8964 23.9307 43.2854 23.9706 43.7242 24.1202C46.0182 24.9081 47.3347 26.464 47.8732 29.0073C48.1824 30.4834 48.2223 31.5705 48.1525 36.8665L48.0827 42.1325H47.0554H46.0281L45.9882 36.2681C45.9583 32.4581 45.8985 30.2141 45.8287 29.8351C45.4197 27.7506 44.4623 26.3344 42.9862 25.6262C41.3206 24.8383 39.3857 24.9081 37.5107 25.8357C36.7627 26.2047 35.2567 27.1721 35.0672 27.4015C34.9774 27.5013 35.0073 27.7706 35.2068 28.5285C35.5359 29.8451 35.6357 31.9096 35.6456 37.6644C35.6456 38.0468 35.6459 38.3969 35.6462 38.7175C35.6486 41.4897 35.649 42.047 35.4376 42.1444C35.3844 42.1689 35.3178 42.1643 35.2345 42.1585C35.193 42.1556 35.1473 42.1525 35.0971 42.1525C35.0173 42.1525 34.6084 42.1525 34.1995 42.1425L33.4514 42.1325V36.8166C33.4514 33.8844 33.4016 31.1117 33.3517 30.613C32.9328 26.9627 31.1775 25.0777 28.1954 25.0777C26.43 25.0777 25.0637 25.6562 23.6175 27.0026L22.7797 27.7905V34.9615V42.1325H21.6826H20.5855V33.1563V24.1801H21.6826H22.7797V25.7459L22.7897 27.3217L23.049 26.9727C23.4778 26.4141 24.4353 25.5464 25.0138 25.1874ZM79.6791 24.0305C77.3353 24.5491 75.56 25.8058 74.4629 27.7207L73.9443 28.6183V26.4541V24.2998L73.0965 24.2299C72.6377 24.1901 72.139 24.1901 71.9994 24.22L71.7501 24.2798L71.77 33.1862L71.7999 42.0827L72.0991 42.1126C72.2687 42.1325 72.7175 42.1226 73.1164 42.0827L73.8345 42.0129L73.8645 36.2681C73.8944 30.613 73.9044 30.5033 74.1138 29.9348C74.9017 27.8504 76.667 26.3045 78.951 25.6761C79.7489 25.4567 81.1552 25.2772 82.0528 25.2772H82.6213V24.6389V24.0105L81.953 23.9507C80.9956 23.8609 80.3672 23.8809 79.6791 24.0305Z" fill="#DABA81"/>
</svg>
